<svg xmlns="http://www.w3.org/2000/svg" viewBox="0 0 147.4 147.4"><defs><style>.\32 399b8b8-b427-489e-83ca-2bf6543f575b{opacity:0.7;}.\32 31b79aa-2925-4c51-9517-5b061df1a088,.d34ca5a8-cc74-4de3-8964-0bc607eb5405{fill:#ffc25e;}.\32 31b79aa-2925-4c51-9517-5b061df1a088{opacity:0.54;}.\36 e7b01b6-70eb-465a-8605-258f4b14dc14{fill:#fff;}</style></defs><title>icon_white_svg</title><g id="6a181b3e-094c-4056-bda5-7593885cb193" data-name="icon_white"><g class="2399b8b8-b427-489e-83ca-2bf6543f575b"><polygon class="231b79aa-2925-4c51-9517-5b061df1a088" points="120.79 96.63 97.8 92.5 83.73 97.2 81.58 104.11 81.58 115.41 86.42 122.95 95.89 129.49 109.89 127.4 118.43 121.95 122.84 108.44 120.79 96.63"/><polygon class="231b79aa-2925-4c51-9517-5b061df1a088" points="52.73 92.5 29.74 96.63 27.7 108.44 32.1 121.95 40.64 127.4 54.65 129.49 64.12 122.95 68.95 115.41 68.95 104.11 66.8 97.2 52.73 92.5"/></g><path class="d34ca5a8-cc74-4de3-8964-0bc607eb5405" d="M127.19,95.35c-25-10.65-49.36-.86-49.36-.86a13.62,13.62,0,0,1-5.59.28c-3.42-1.26-25.91-8.77-48.9,1a2.89,2.89,0,0,0-1.76,2.64v4.5a2.83,2.83,0,0,0,2.28,2.79l.11,0a2.84,2.84,0,0,1,2.34,2.37c.78,5.5,3.9,18.69,13,20.91,4.42,1.07,16.58,3.81,27.16-5.41l.31-.32c.74-.9,3.9-5,3.9-9.88,0-5.52,1.49-6.8,4.27-7.23.39-.06,1.3,0,2.07-.11,1.88.7,2.87,2.38,2.87,6.89,0,4.87,3.16,9,3.9,9.88l.31.31c10.58,9.23,22.75,6.49,27.16,5.42,9.08-2.22,12.2-15.41,13-20.91a2.83,2.83,0,0,1,2.34-2.37l.11,0a2.83,2.83,0,0,0,2.28-2.79V98A2.89,2.89,0,0,0,127.19,95.35ZM66.75,113.56c0,3.53-2.29,6.71-3,7.58l-.34.36c-5.25,4.54-8.72,5.3-12.3,5.47-6.92.35-10.48-.54-12.11-1.36C31.79,122,30.29,110.85,29.91,108c-.26-1.91-.3-8.7,2-9.83,6.2-3,8-3.22,15-3.22,6.24,0,13.87,1.12,17.23,5.08S66.75,111.07,66.75,113.56Zm53.87-6c-.38,2.86-1.88,14-9.12,17.62-1.63.82-5.18,1.71-12.11,1.36-3.58-.18-7-.93-12.3-5.47l-.34-.36c-.68-.87-3-4-3-7.58,0-2.49-.9-9.46,2.58-13.55s11-5.07,17.23-5.07c7,0,8.81.21,15,3.22C120.92,98.84,120.88,105.62,120.62,107.54Z"/><ellipse class="d34ca5a8-cc74-4de3-8964-0bc607eb5405" cx="48.6" cy="112.47" rx="10.42" ry="9.75"/><path d="M48.6,117.78a5.32,5.32,0,1,1,5.67-5.31A5.51,5.51,0,0,1,48.6,117.78Z"/><path class="6e7b01b6-70eb-465a-8605-258f4b14dc14" d="M42.92,112.47a3.64,3.64,0,1,1,3.88-3.63A3.77,3.77,0,0,1,42.92,112.47Z"/><ellipse class="d34ca5a8-cc74-4de3-8964-0bc607eb5405" cx="102.48" cy="111" rx="10.42" ry="9.75"/><path d="M102.48,116.31a5.33,5.33,0,1,1,5.68-5.31A5.51,5.51,0,0,1,102.48,116.31Z"/><path class="6e7b01b6-70eb-465a-8605-258f4b14dc14" d="M96.81,111a3.64,3.64,0,1,1,3.88-3.63A3.77,3.77,0,0,1,96.81,111Z"/><path class="d34ca5a8-cc74-4de3-8964-0bc607eb5405" d="M138.07,36.38c-4.74-4.66-13-1.73-13-1.74a36.53,36.53,0,0,0-3.47-21.45c-.84,3.42-3.34,9.78-9.95,11.15,0,0-7.08-32.6-80,3.16,0,0-21.86,10-17,43.1A103,103,0,0,1,2.84,76.26q6.89,1.06,13.32,1.83c.37,1.52.84,3.06,1.27,4.67,3.73,14.06,0,3.29,3.79-4.11a280.19,280.19,0,0,0,33.59,1.56c-2.08,1-6.3,2.5-5,2.33,78.85-10.26,78.41-23.19,78.41-23.19,7,5.21,5.21,25,5.21,25C146,73.33,148.5,44.4,138.07,36.38Z"/></g></svg>