<svg xmlns="http://www.w3.org/2000/svg" viewBox="0 0 687.5 130.94"><defs><style>.\30 2773ffe-ccf6-4149-bd2b-73826141f719{fill:#ffc25e;}.\32 850bf7d-30a9-4881-8942-c56b64bb998a{fill:#fff;}.\35 73eeb26-b5ea-4b40-bf95-f0fb96d6e702{opacity:0.7;}.\32 d5ef803-8e2b-4cc3-827b-dece4d5e7d2d{fill:#ffeaa5;opacity:0.54;}</style></defs><title>logo_white_svg</title><g id="0cac5388-e772-4232-b8a2-87422280da78" data-name="logo_white"><path class="02773ffe-ccf6-4149-bd2b-73826141f719" d="M24.85,32.88h5c1.4,0,2.11.61,2.11,1.84v6c0,1.24-.71,1.85-2.11,1.85h-5c-1.41,0-2.11-.61-2.11-1.85v-6C22.74,33.49,23.44,32.88,24.85,32.88Zm0,10.47h5c1.4,0,2.11.62,2.11,1.85v6c0,1.23-.71,1.85-2.11,1.85h-5c-1.41,0-2.11-.62-2.11-1.85v-6C22.74,44,23.44,43.35,24.85,43.35Zm0,10.52h5c1.4,0,2.11.62,2.11,1.85v6c0,1.23-.71,1.85-2.11,1.85h-5c-1.41,0-2.11-.62-2.11-1.85v-6C22.74,54.49,23.44,53.87,24.85,53.87Zm0,10.47h5c1.4,0,2.11.62,2.11,1.85v6c0,1.23-.71,1.85-2.11,1.85h-5c-1.41,0-2.11-.62-2.11-1.85v-6C22.74,65,23.44,64.34,24.85,64.34Zm0,10.53h5c1.4,0,2.11.61,2.11,1.84v6c0,1.23-.71,1.84-2.11,1.84h-5c-1.41,0-2.11-.61-2.11-1.84v-6C22.74,75.48,23.44,74.87,24.85,74.87Zm0,10.47h5c1.4,0,2.11.62,2.11,1.85v6c0,1.23-.71,1.85-2.11,1.85h-5c-1.41,0-2.11-.62-2.11-1.85v-6C22.74,86,23.44,85.34,24.85,85.34Zm0,10.47h5c1.4,0,2.11.62,2.11,1.85v6c0,1.23-.71,1.85-2.11,1.85h-5c-1.41,0-2.11-.62-2.11-1.85v-6C22.74,96.43,23.44,95.81,24.85,95.81ZM34.8,22.4h5c1.41,0,2.12.62,2.12,1.85v6c0,1.23-.71,1.85-2.12,1.85h-5c-1.41,0-2.12-.62-2.12-1.85v-6C32.68,23,33.39,22.4,34.8,22.4Zm0,52.47h5c1.41,0,2.12.61,2.12,1.84v6c0,1.23-.71,1.84-2.12,1.84h-5c-1.41,0-2.12-.61-2.12-1.84v-6C32.68,75.48,33.39,74.87,34.8,74.87Zm10-52.47h5c1.41,0,2.11.62,2.11,1.85v6c0,1.23-.7,1.85-2.11,1.85h-5c-1.41,0-2.11-.62-2.11-1.85v-6C42.68,23,43.38,22.4,44.79,22.4Zm0,52.47h5c1.41,0,2.11.61,2.11,1.84v6c0,1.23-.7,1.84-2.11,1.84h-5c-1.41,0-2.11-.61-2.11-1.84v-6C42.68,75.48,43.38,74.87,44.79,74.87Zm10-52.47h4.94c1.41,0,2.12.62,2.12,1.85v6c0,1.23-.71,1.85-2.12,1.85H54.74c-1.42,0-2.12-.62-2.12-1.85v-6C52.62,23,53.32,22.4,54.74,22.4Zm0,52.47h4.94c1.41,0,2.12.61,2.12,1.84v6c0,1.23-.71,1.84-2.12,1.84H54.74c-1.42,0-2.12-.61-2.12-1.84v-6C52.62,75.48,53.32,74.87,54.74,74.87Zm9.94-42h5c1.4,0,2.11.61,2.11,1.84v6c0,1.24-.71,1.85-2.11,1.85h-5c-1.41,0-2.12-.61-2.12-1.85v-6C62.56,33.49,63.27,32.88,64.68,32.88Zm0,10.47h5c1.4,0,2.11.62,2.11,1.85v6c0,1.23-.71,1.85-2.11,1.85h-5c-1.41,0-2.12-.62-2.12-1.85v-6C62.56,44,63.27,43.35,64.68,43.35Zm0,10.52h5c1.4,0,2.11.62,2.11,1.85v6c0,1.23-.71,1.85-2.11,1.85h-5c-1.41,0-2.12-.62-2.12-1.85v-6C62.56,54.49,63.27,53.87,64.68,53.87Zm0,10.47h5c1.4,0,2.11.62,2.11,1.85v6c0,1.23-.71,1.85-2.11,1.85h-5c-1.41,0-2.12-.62-2.12-1.85v-6C62.56,65,63.27,64.34,64.68,64.34Zm0,10.53h5c1.4,0,2.11.61,2.11,1.84v6c0,1.23-.71,1.84-2.11,1.84h-5c-1.41,0-2.12-.61-2.12-1.84v-6C62.56,75.48,63.27,74.87,64.68,74.87Zm0,10.47h5c1.4,0,2.11.62,2.11,1.85v6c0,1.23-.71,1.85-2.11,1.85h-5c-1.41,0-2.12-.62-2.12-1.85v-6C62.56,86,63.27,85.34,64.68,85.34Zm0,10.47h5c1.4,0,2.11.62,2.11,1.85v6c0,1.23-.71,1.85-2.11,1.85h-5c-1.41,0-2.12-.62-2.12-1.85v-6C62.56,96.43,63.27,95.81,64.68,95.81Z"/><path class="02773ffe-ccf6-4149-bd2b-73826141f719" d="M87.64,22.4h5c1.41,0,2.11.62,2.11,1.85v6c0,1.23-.7,1.85-2.11,1.85h-5c-1.41,0-2.12-.62-2.12-1.85v-6C85.52,23,86.23,22.4,87.64,22.4Zm0,10.48h5c1.41,0,2.11.61,2.11,1.84v6c0,1.24-.7,1.85-2.11,1.85h-5c-1.41,0-2.12-.61-2.12-1.85v-6C85.52,33.49,86.23,32.88,87.64,32.88Zm0,10.47h5c1.41,0,2.11.62,2.11,1.85v6c0,1.23-.7,1.85-2.11,1.85h-5c-1.41,0-2.12-.62-2.12-1.85v-6C85.52,44,86.23,43.35,87.64,43.35Zm0,10.52h5c1.41,0,2.11.62,2.11,1.85v6c0,1.23-.7,1.85-2.11,1.85h-5c-1.41,0-2.12-.62-2.12-1.85v-6C85.52,54.49,86.23,53.87,87.64,53.87Zm0,10.47h5c1.41,0,2.11.62,2.11,1.85v6c0,1.23-.7,1.85-2.11,1.85h-5c-1.41,0-2.12-.62-2.12-1.85v-6C85.52,65,86.23,64.34,87.64,64.34Zm0,10.53h5c1.41,0,2.11.61,2.11,1.84v6c0,1.23-.7,1.84-2.11,1.84h-5c-1.41,0-2.12-.61-2.12-1.84v-6C85.52,75.48,86.23,74.87,87.64,74.87Zm0,10.47h5c1.41,0,2.11.62,2.11,1.85v6c0,1.23-.7,1.85-2.11,1.85h-5c-1.41,0-2.12-.62-2.12-1.85v-6C85.52,86,86.23,85.34,87.64,85.34Zm9.94,10.47h5c1.41,0,2.11.62,2.11,1.85v6c0,1.23-.7,1.85-2.11,1.85h-5c-1.41,0-2.11-.62-2.11-1.85v-6C95.47,96.43,96.17,95.81,97.58,95.81Zm10,0h5c1.41,0,2.12.62,2.12,1.85v6c0,1.23-.71,1.85-2.12,1.85h-5c-1.41,0-2.11-.62-2.11-1.85v-6C105.46,96.43,106.16,95.81,107.57,95.81Zm10,0h5c1.41,0,2.11.62,2.11,1.85v6c0,1.23-.7,1.85-2.11,1.85h-5c-1.41,0-2.12-.62-2.12-1.85v-6C115.4,96.43,116.11,95.81,117.52,95.81Zm9.94-73.41h5c1.41,0,2.11.62,2.11,1.85v6c0,1.23-.7,1.85-2.11,1.85h-5c-1.41,0-2.11-.62-2.11-1.85v-6C125.35,23,126.05,22.4,127.46,22.4Zm0,10.48h5c1.41,0,2.11.61,2.11,1.84v6c0,1.24-.7,1.85-2.11,1.85h-5c-1.41,0-2.11-.61-2.11-1.85v-6C125.35,33.49,126.05,32.88,127.46,32.88Zm0,10.47h5c1.41,0,2.11.62,2.11,1.85v6c0,1.23-.7,1.85-2.11,1.85h-5c-1.41,0-2.11-.62-2.11-1.85v-6C125.35,44,126.05,43.35,127.46,43.35Zm0,10.52h5c1.41,0,2.11.62,2.11,1.85v6c0,1.23-.7,1.85-2.11,1.85h-5c-1.41,0-2.11-.62-2.11-1.85v-6C125.35,54.49,126.05,53.87,127.46,53.87Zm0,10.47h5c1.41,0,2.11.62,2.11,1.85v6c0,1.23-.7,1.85-2.11,1.85h-5c-1.41,0-2.11-.62-2.11-1.85v-6C125.35,65,126.05,64.34,127.46,64.34Zm0,10.53h5c1.41,0,2.11.61,2.11,1.84v6c0,1.23-.7,1.84-2.11,1.84h-5c-1.41,0-2.11-.61-2.11-1.84v-6C125.35,75.48,126.05,74.87,127.46,74.87Zm0,10.47h5c1.41,0,2.11.62,2.11,1.85v6c0,1.23-.7,1.85-2.11,1.85h-5c-1.41,0-2.11-.62-2.11-1.85v-6C125.35,86,126.05,85.34,127.46,85.34Z"/><path class="02773ffe-ccf6-4149-bd2b-73826141f719" d="M150.42,22.4h5c1.41,0,2.12.62,2.12,1.85v6c0,1.23-.71,1.85-2.12,1.85h-5c-1.41,0-2.11-.62-2.11-1.85v-6C148.31,23,149,22.4,150.42,22.4Zm10,0h5c1.41,0,2.12.62,2.12,1.85v6c0,1.23-.71,1.85-2.12,1.85h-5c-1.41,0-2.12-.62-2.12-1.85v-6C158.25,23,159,22.4,160.37,22.4Zm10,0h4.95c1.41,0,2.11.62,2.11,1.85v6c0,1.23-.7,1.85-2.11,1.85h-4.95c-1.41,0-2.12-.62-2.12-1.85v-6C168.24,23,169,22.4,170.36,22.4Zm0,10.48h4.95c1.41,0,2.11.61,2.11,1.84v6c0,1.24-.7,1.85-2.11,1.85h-4.95c-1.41,0-2.12-.61-2.12-1.85v-6C168.24,33.49,169,32.88,170.36,32.88Zm0,10.47h4.95c1.41,0,2.11.62,2.11,1.85v6c0,1.23-.7,1.85-2.11,1.85h-4.95c-1.41,0-2.12-.62-2.12-1.85v-6C168.24,44,169,43.35,170.36,43.35Zm0,10.52h4.95c1.41,0,2.11.62,2.11,1.85v6c0,1.23-.7,1.85-2.11,1.85h-4.95c-1.41,0-2.12-.62-2.12-1.85v-6C168.24,54.49,169,53.87,170.36,53.87Zm0,10.47h4.95c1.41,0,2.11.62,2.11,1.85v6c0,1.23-.7,1.85-2.11,1.85h-4.95c-1.41,0-2.12-.62-2.12-1.85v-6C168.24,65,169,64.34,170.36,64.34Zm0,10.53h4.95c1.41,0,2.11.61,2.11,1.84v6c0,1.23-.7,1.84-2.11,1.84h-4.95c-1.41,0-2.12-.61-2.12-1.84v-6C168.24,75.48,169,74.87,170.36,74.87Zm0,10.47h4.95c1.41,0,2.11.62,2.11,1.85v6c0,1.23-.7,1.85-2.11,1.85h-4.95c-1.41,0-2.12-.62-2.12-1.85v-6C168.24,86,169,85.34,170.36,85.34Zm0,10.47h4.95c1.41,0,2.11.62,2.11,1.85v6c0,1.23-.7,1.85-2.11,1.85h-4.95c-1.41,0-2.12-.62-2.12-1.85v-6C168.24,96.43,169,95.81,170.36,95.81ZM180.3,22.4h4.95c1.41,0,2.12.62,2.12,1.85v6c0,1.23-.71,1.85-2.12,1.85H180.3c-1.41,0-2.11-.62-2.11-1.85v-6C178.19,23,178.89,22.4,180.3,22.4Zm9.95,0h5c1.41,0,2.12.62,2.12,1.85v6c0,1.23-.71,1.85-2.12,1.85h-5c-1.41,0-2.12-.62-2.12-1.85v-6C188.13,23,188.84,22.4,190.25,22.4Z"/><path class="02773ffe-ccf6-4149-bd2b-73826141f719" d="M213.21,32.88h4.95c1.41,0,2.11.61,2.11,1.84v6c0,1.24-.7,1.85-2.11,1.85h-4.95c-1.41,0-2.12-.61-2.12-1.85v-6C211.09,33.49,211.8,32.88,213.21,32.88Zm0,10.47h4.95c1.41,0,2.11.62,2.11,1.85v6c0,1.23-.7,1.85-2.11,1.85h-4.95c-1.41,0-2.12-.62-2.12-1.85v-6C211.09,44,211.8,43.35,213.21,43.35Zm0,10.52h4.95c1.41,0,2.11.62,2.11,1.85v6c0,1.23-.7,1.85-2.11,1.85h-4.95c-1.41,0-2.12-.62-2.12-1.85v-6C211.09,54.49,211.8,53.87,213.21,53.87Zm0,10.47h4.95c1.41,0,2.11.62,2.11,1.85v6c0,1.23-.7,1.85-2.11,1.85h-4.95c-1.41,0-2.12-.62-2.12-1.85v-6C211.09,65,211.8,64.34,213.21,64.34Zm0,10.53h4.95c1.41,0,2.11.61,2.11,1.84v6c0,1.23-.7,1.84-2.11,1.84h-4.95c-1.41,0-2.12-.61-2.12-1.84v-6C211.09,75.48,211.8,74.87,213.21,74.87Zm0,10.47h4.95c1.41,0,2.11.62,2.11,1.85v6c0,1.23-.7,1.85-2.11,1.85h-4.95c-1.41,0-2.12-.62-2.12-1.85v-6C211.09,86,211.8,85.34,213.21,85.34Zm9.94-62.94h5c1.41,0,2.11.62,2.11,1.85v6c0,1.23-.7,1.85-2.11,1.85h-5c-1.41,0-2.11-.62-2.11-1.85v-6C221,23,221.74,22.4,223.15,22.4Zm0,73.41h5c1.41,0,2.11.62,2.11,1.85v6c0,1.23-.7,1.85-2.11,1.85h-5c-1.41,0-2.11-.62-2.11-1.85v-6C221,96.43,221.74,95.81,223.15,95.81Zm10-73.41h5c1.41,0,2.12.62,2.12,1.85v6c0,1.23-.71,1.85-2.12,1.85h-5c-1.41,0-2.11-.62-2.11-1.85v-6C231,23,231.73,22.4,233.14,22.4Zm0,73.41h5c1.41,0,2.12.62,2.12,1.85v6c0,1.23-.71,1.85-2.12,1.85h-5c-1.41,0-2.11-.62-2.11-1.85v-6C231,96.43,231.73,95.81,233.14,95.81Zm10-73.41H248c1.41,0,2.11.62,2.11,1.85v6c0,1.23-.7,1.85-2.11,1.85h-4.95c-1.41,0-2.12-.62-2.12-1.85v-6C241,23,241.68,22.4,243.09,22.4Zm0,73.41H248c1.41,0,2.11.62,2.11,1.85v6c0,1.23-.7,1.85-2.11,1.85h-4.95c-1.41,0-2.12-.62-2.12-1.85v-6C241,96.43,241.68,95.81,243.09,95.81ZM253,32.88h5c1.41,0,2.11.61,2.11,1.84v6c0,1.24-.7,1.85-2.11,1.85h-5c-1.41,0-2.11-.61-2.11-1.85v-6C250.92,33.49,251.62,32.88,253,32.88Zm0,10.47h5c1.41,0,2.11.62,2.11,1.85v6c0,1.23-.7,1.85-2.11,1.85h-5c-1.41,0-2.11-.62-2.11-1.85v-6C250.92,44,251.62,43.35,253,43.35Zm0,10.52h5c1.41,0,2.11.62,2.11,1.85v6c0,1.23-.7,1.85-2.11,1.85h-5c-1.41,0-2.11-.62-2.11-1.85v-6C250.92,54.49,251.62,53.87,253,53.87Zm0,10.47h5c1.41,0,2.11.62,2.11,1.85v6c0,1.23-.7,1.85-2.11,1.85h-5c-1.41,0-2.11-.62-2.11-1.85v-6C250.92,65,251.62,64.34,253,64.34Zm0,10.53h5c1.41,0,2.11.61,2.11,1.84v6c0,1.23-.7,1.84-2.11,1.84h-5c-1.41,0-2.11-.61-2.11-1.84v-6C250.92,75.48,251.62,74.87,253,74.87Zm0,10.47h5c1.41,0,2.11.62,2.11,1.85v6c0,1.23-.7,1.85-2.11,1.85h-5c-1.41,0-2.11-.62-2.11-1.85v-6C250.92,86,251.62,85.34,253,85.34Z"/><path class="02773ffe-ccf6-4149-bd2b-73826141f719" d="M427.21,22.35h5c1.41,0,2.11.62,2.11,1.85v6c0,1.23-.7,1.85-2.11,1.85h-5c-1.41,0-2.12-.62-2.12-1.85v-6C425.09,23,425.8,22.35,427.21,22.35Zm0,10.53h5c1.41,0,2.11.61,2.11,1.84v6c0,1.24-.7,1.85-2.11,1.85h-5c-1.41,0-2.12-.61-2.12-1.85v-6C425.09,33.49,425.8,32.88,427.21,32.88Zm0,10.47h5c1.41,0,2.11.62,2.11,1.85v6c0,1.23-.7,1.85-2.11,1.85h-5c-1.41,0-2.12-.62-2.12-1.85v-6C425.09,44,425.8,43.35,427.21,43.35Zm0,10.52h5c1.41,0,2.11.62,2.11,1.85v6c0,1.27-.7,1.9-2.11,1.9h-5c-1.41,0-2.12-.63-2.12-1.9v-6C425.09,54.49,425.8,53.87,427.21,53.87Zm0,10.47h5c1.41,0,2.11.62,2.11,1.85v6c0,1.23-.7,1.85-2.11,1.85h-5c-1.41,0-2.12-.62-2.12-1.85v-6C425.09,65,425.8,64.34,427.21,64.34Zm0,10.48h5c1.41,0,2.11.63,2.11,1.89v6c0,1.23-.7,1.84-2.11,1.84h-5c-1.41,0-2.12-.61-2.12-1.84v-6C425.09,75.45,425.8,74.82,427.21,74.82Zm0,10.52h5c1.41,0,2.11.62,2.11,1.85v6c0,1.23-.7,1.85-2.11,1.85h-5c-1.41,0-2.12-.62-2.12-1.85v-6C425.09,86,425.8,85.34,427.21,85.34Zm0,10.47h5c1.41,0,2.11.62,2.11,1.85v6c0,1.23-.7,1.85-2.11,1.85h-5c-1.41,0-2.12-.62-2.12-1.85v-6C425.09,96.43,425.8,95.81,427.21,95.81Zm9.94-62.93h5c1.41,0,2.11.61,2.11,1.84v6c0,1.24-.7,1.85-2.11,1.85h-5c-1.41,0-2.11-.61-2.11-1.85v-6C435,33.49,435.74,32.88,437.15,32.88Zm10,10.47h4.95c1.41,0,2.12.62,2.12,1.85v6c0,1.23-.71,1.85-2.12,1.85h-4.95c-1.41,0-2.11-.62-2.11-1.85v-6C445,44,445.73,43.35,447.14,43.35Zm9.95,0h5c1.41,0,2.12.62,2.12,1.85v6c0,1.23-.71,1.85-2.12,1.85h-5c-1.41,0-2.12-.62-2.12-1.85v-6C455,44,455.68,43.35,457.09,43.35ZM467,32.88h5c1.41,0,2.11.61,2.11,1.84v6c0,1.24-.7,1.85-2.11,1.85h-5c-1.41,0-2.11-.61-2.11-1.85v-6C464.92,33.49,465.62,32.88,467,32.88Zm10-10.53h5c1.44,0,2.16.62,2.16,1.85v6c0,1.23-.72,1.85-2.16,1.85h-5c-1.41,0-2.11-.62-2.11-1.85v-6C474.91,23,475.61,22.35,477,22.35Zm0,10.53h5c1.44,0,2.16.61,2.16,1.84v6c0,1.24-.72,1.85-2.16,1.85h-5c-1.41,0-2.11-.61-2.11-1.85v-6C474.91,33.49,475.61,32.88,477,32.88Zm0,10.47h5c1.44,0,2.16.62,2.16,1.85v6c0,1.23-.72,1.85-2.16,1.85h-5c-1.41,0-2.11-.62-2.11-1.85v-6C474.91,44,475.61,43.35,477,43.35Zm0,10.52h5c1.44,0,2.16.62,2.16,1.85v6c0,1.27-.72,1.9-2.16,1.9h-5c-1.41,0-2.11-.63-2.11-1.9v-6C474.91,54.49,475.61,53.87,477,53.87Zm0,10.47h5c1.44,0,2.16.62,2.16,1.85v6c0,1.23-.72,1.85-2.16,1.85h-5c-1.41,0-2.11-.62-2.11-1.85v-6C474.91,65,475.61,64.34,477,64.34Zm0,10.48h5q2.16,0,2.16,1.89v6c0,1.23-.72,1.84-2.16,1.84h-5c-1.41,0-2.11-.61-2.11-1.84v-6C474.91,75.45,475.61,74.82,477,74.82Zm0,10.52h5c1.44,0,2.16.62,2.16,1.85v6c0,1.23-.72,1.85-2.16,1.85h-5c-1.41,0-2.11-.62-2.11-1.85v-6C474.91,86,475.61,85.34,477,85.34Zm0,10.47h5c1.44,0,2.16.62,2.16,1.85v6c0,1.23-.72,1.85-2.16,1.85h-5c-1.41,0-2.11-.62-2.11-1.85v-6C474.91,96.43,475.61,95.81,477,95.81Z"/><path class="02773ffe-ccf6-4149-bd2b-73826141f719" d="M502.4,32.88h5c1.41,0,2.11.61,2.11,1.84v6c0,1.24-.7,1.85-2.11,1.85h-5c-1.41,0-2.12-.61-2.12-1.85v-6C500.28,33.49,501,32.88,502.4,32.88Zm0,10.47h5c1.41,0,2.11.62,2.11,1.85v6c0,1.23-.7,1.85-2.11,1.85h-5c-1.41,0-2.12-.62-2.12-1.85v-6C500.28,44,501,43.35,502.4,43.35Zm0,10.52h5c1.41,0,2.11.62,2.11,1.85v6c0,1.23-.7,1.85-2.11,1.85h-5c-1.41,0-2.12-.62-2.12-1.85v-6C500.28,54.49,501,53.87,502.4,53.87Zm0,10.47h5c1.41,0,2.11.62,2.11,1.85v6c0,1.23-.7,1.85-2.11,1.85h-5c-1.41,0-2.12-.62-2.12-1.85v-6C500.28,65,501,64.34,502.4,64.34Zm0,10.53h5c1.41,0,2.11.61,2.11,1.84v6c0,1.23-.7,1.84-2.11,1.84h-5c-1.41,0-2.12-.61-2.12-1.84v-6C500.28,75.48,501,74.87,502.4,74.87Zm0,10.47h5c1.41,0,2.11.62,2.11,1.85v6c0,1.23-.7,1.85-2.11,1.85h-5c-1.41,0-2.12-.62-2.12-1.85v-6C500.28,86,501,85.34,502.4,85.34Zm0,10.47h5c1.41,0,2.11.62,2.11,1.85v6c0,1.23-.7,1.85-2.11,1.85h-5c-1.41,0-2.12-.62-2.12-1.85v-6C500.28,96.43,501,95.81,502.4,95.81Zm9.94-73.41h5c1.41,0,2.11.62,2.11,1.85v6c0,1.23-.7,1.85-2.11,1.85h-5c-1.41,0-2.11-.62-2.11-1.85v-6C510.23,23,510.93,22.4,512.34,22.4Zm0,52.47h5c1.41,0,2.11.61,2.11,1.84v6c0,1.23-.7,1.84-2.11,1.84h-5c-1.41,0-2.11-.61-2.11-1.84v-6C510.23,75.48,510.93,74.87,512.34,74.87Zm10-52.47h4.95c1.41,0,2.12.62,2.12,1.85v6c0,1.23-.71,1.85-2.12,1.85h-4.95c-1.41,0-2.11-.62-2.11-1.85v-6C520.22,23,520.92,22.4,522.33,22.4Zm0,52.47h4.95c1.41,0,2.12.61,2.12,1.84v6c0,1.23-.71,1.84-2.12,1.84h-4.95c-1.41,0-2.11-.61-2.11-1.84v-6C520.22,75.48,520.92,74.87,522.33,74.87Zm9.95-52.47h5c1.41,0,2.11.62,2.11,1.85v6c0,1.23-.7,1.85-2.11,1.85h-5c-1.41,0-2.12-.62-2.12-1.85v-6C530.16,23,530.87,22.4,532.28,22.4Zm0,52.47h5c1.41,0,2.11.61,2.11,1.84v6c0,1.23-.7,1.84-2.11,1.84h-5c-1.41,0-2.12-.61-2.12-1.84v-6C530.16,75.48,530.87,74.87,532.28,74.87Zm9.94-42h5c1.41,0,2.11.61,2.11,1.84v6c0,1.24-.7,1.85-2.11,1.85h-5c-1.41,0-2.11-.61-2.11-1.85v-6C540.11,33.49,540.81,32.88,542.22,32.88Zm0,10.47h5c1.41,0,2.11.62,2.11,1.85v6c0,1.23-.7,1.85-2.11,1.85h-5c-1.41,0-2.11-.62-2.11-1.85v-6C540.11,44,540.81,43.35,542.22,43.35Zm0,10.52h5c1.41,0,2.11.62,2.11,1.85v6c0,1.23-.7,1.85-2.11,1.85h-5c-1.41,0-2.11-.62-2.11-1.85v-6C540.11,54.49,540.81,53.87,542.22,53.87Zm0,10.47h5c1.41,0,2.11.62,2.11,1.85v6c0,1.23-.7,1.85-2.11,1.85h-5c-1.41,0-2.11-.62-2.11-1.85v-6C540.11,65,540.81,64.34,542.22,64.34Zm0,10.53h5c1.41,0,2.11.61,2.11,1.84v6c0,1.23-.7,1.84-2.11,1.84h-5c-1.41,0-2.11-.61-2.11-1.84v-6C540.11,75.48,540.81,74.87,542.22,74.87Zm0,10.47h5c1.41,0,2.11.62,2.11,1.85v6c0,1.23-.7,1.85-2.11,1.85h-5c-1.41,0-2.11-.62-2.11-1.85v-6C540.11,86,540.81,85.34,542.22,85.34Zm0,10.47h5c1.41,0,2.11.62,2.11,1.85v6c0,1.23-.7,1.85-2.11,1.85h-5c-1.41,0-2.11-.62-2.11-1.85v-6C540.11,96.43,540.81,95.81,542.22,95.81Z"/><path class="02773ffe-ccf6-4149-bd2b-73826141f719" d="M565.18,22.4h5c1.41,0,2.12.62,2.12,1.85v6c0,1.23-.71,1.85-2.12,1.85h-5c-1.41,0-2.11-.62-2.11-1.85v-6C563.07,23,563.77,22.4,565.18,22.4Zm10,0h5c1.41,0,2.12.62,2.12,1.85v6c0,1.23-.71,1.85-2.12,1.85h-5c-1.41,0-2.12-.62-2.12-1.85v-6C573,23,573.72,22.4,575.13,22.4Zm10,0h5c1.41,0,2.11.62,2.11,1.85v6c0,1.23-.7,1.85-2.11,1.85h-5c-1.41,0-2.12-.62-2.12-1.85v-6C583,23,583.71,22.4,585.12,22.4Zm0,10.48h5c1.41,0,2.11.61,2.11,1.84v6c0,1.24-.7,1.85-2.11,1.85h-5c-1.41,0-2.12-.61-2.12-1.85v-6C583,33.49,583.71,32.88,585.12,32.88Zm0,10.47h5c1.41,0,2.11.62,2.11,1.85v6c0,1.23-.7,1.85-2.11,1.85h-5c-1.41,0-2.12-.62-2.12-1.85v-6C583,44,583.71,43.35,585.12,43.35Zm0,10.52h5c1.41,0,2.11.62,2.11,1.85v6c0,1.23-.7,1.85-2.11,1.85h-5c-1.41,0-2.12-.62-2.12-1.85v-6C583,54.49,583.71,53.87,585.12,53.87Zm0,10.47h5c1.41,0,2.11.62,2.11,1.85v6c0,1.23-.7,1.85-2.11,1.85h-5c-1.41,0-2.12-.62-2.12-1.85v-6C583,65,583.71,64.34,585.12,64.34Zm0,10.53h5c1.41,0,2.11.61,2.11,1.84v6c0,1.23-.7,1.84-2.11,1.84h-5c-1.41,0-2.12-.61-2.12-1.84v-6C583,75.48,583.71,74.87,585.12,74.87Zm0,10.47h5c1.41,0,2.11.62,2.11,1.85v6c0,1.23-.7,1.85-2.11,1.85h-5c-1.41,0-2.12-.62-2.12-1.85v-6C583,86,583.71,85.34,585.12,85.34Zm0,10.47h5c1.41,0,2.11.62,2.11,1.85v6c0,1.23-.7,1.85-2.11,1.85h-5c-1.41,0-2.12-.62-2.12-1.85v-6C583,96.43,583.71,95.81,585.12,95.81Zm9.94-73.41h5c1.41,0,2.12.62,2.12,1.85v6c0,1.23-.71,1.85-2.12,1.85h-5c-1.41,0-2.11-.62-2.11-1.85v-6C593,23,593.65,22.4,595.06,22.4Zm10,0h5c1.41,0,2.12.62,2.12,1.85v6c0,1.23-.71,1.85-2.12,1.85h-5c-1.41,0-2.12-.62-2.12-1.85v-6C602.89,23,603.6,22.4,605,22.4Z"/><path class="02773ffe-ccf6-4149-bd2b-73826141f719" d="M628,22.4h4.95c1.41,0,2.12.62,2.12,1.85v6c0,1.23-.71,1.85-2.12,1.85H628c-1.41,0-2.11-.62-2.11-1.85v-6C625.85,23,626.55,22.4,628,22.4Zm0,10.48h4.95c1.41,0,2.12.61,2.12,1.84v6c0,1.24-.71,1.85-2.12,1.85H628c-1.41,0-2.11-.61-2.11-1.85v-6C625.85,33.49,626.55,32.88,628,32.88Zm0,10.47h4.95c1.41,0,2.12.62,2.12,1.85v6c0,1.23-.71,1.85-2.12,1.85H628c-1.41,0-2.11-.62-2.11-1.85v-6C625.85,44,626.55,43.35,628,43.35Zm0,10.52h4.95c1.41,0,2.12.62,2.12,1.85v6c0,1.23-.71,1.85-2.12,1.85H628c-1.41,0-2.11-.62-2.11-1.85v-6C625.85,54.49,626.55,53.87,628,53.87Zm0,10.47h4.95c1.41,0,2.12.62,2.12,1.85v6c0,1.23-.71,1.85-2.12,1.85H628c-1.41,0-2.11-.62-2.11-1.85v-6C625.85,65,626.55,64.34,628,64.34Zm0,10.53h4.95c1.41,0,2.12.61,2.12,1.84v6c0,1.23-.71,1.84-2.12,1.84H628c-1.41,0-2.11-.61-2.11-1.84v-6C625.85,75.48,626.55,74.87,628,74.87Zm0,10.47h4.95c1.41,0,2.12.62,2.12,1.85v6c0,1.23-.71,1.85-2.12,1.85H628c-1.41,0-2.11-.62-2.11-1.85v-6C625.85,86,626.55,85.34,628,85.34Zm0,10.47h4.95c1.41,0,2.12.62,2.12,1.85v6c0,1.23-.71,1.85-2.12,1.85H628c-1.41,0-2.11-.62-2.11-1.85v-6C625.85,96.43,626.55,95.81,628,95.81Zm9.95-73.41h5c1.41,0,2.12.62,2.12,1.85v6c0,1.23-.71,1.85-2.12,1.85h-5c-1.41,0-2.12-.62-2.12-1.85v-6C635.79,23,636.5,22.4,637.91,22.4Zm0,41.94h5c1.41,0,2.12.62,2.12,1.85v6c0,1.23-.71,1.85-2.12,1.85h-5c-1.41,0-2.12-.62-2.12-1.85v-6C635.79,65,636.5,64.34,637.91,64.34Zm0,31.47h5c1.41,0,2.12.62,2.12,1.85v6c0,1.23-.71,1.85-2.12,1.85h-5c-1.41,0-2.12-.62-2.12-1.85v-6C635.79,96.43,636.5,95.81,637.91,95.81Zm10-73.41h5c1.41,0,2.11.62,2.11,1.85v6c0,1.23-.7,1.85-2.11,1.85h-5c-1.41,0-2.11-.62-2.11-1.85v-6C645.79,23,646.49,22.4,647.9,22.4Zm0,41.94h5c1.41,0,2.11.62,2.11,1.85v6c0,1.23-.7,1.85-2.11,1.85h-5c-1.41,0-2.11-.62-2.11-1.85v-6C645.79,65,646.49,64.34,647.9,64.34Zm0,31.47h5c1.41,0,2.11.62,2.11,1.85v6c0,1.23-.7,1.85-2.11,1.85h-5c-1.41,0-2.11-.62-2.11-1.85v-6C645.79,96.43,646.49,95.81,647.9,95.81Zm10-73.41h4.94c1.41,0,2.12.62,2.12,1.85v6c0,1.23-.71,1.85-2.12,1.85h-4.94c-1.42,0-2.12-.62-2.12-1.85v-6C655.73,23,656.43,22.4,657.85,22.4Zm0,41.94h4.94c1.41,0,2.12.62,2.12,1.85v6c0,1.23-.71,1.85-2.12,1.85h-4.94c-1.42,0-2.12-.62-2.12-1.85v-6C655.73,65,656.43,64.34,657.85,64.34Zm0,31.47h4.94c1.41,0,2.12.62,2.12,1.85v6c0,1.23-.71,1.85-2.12,1.85h-4.94c-1.42,0-2.12-.62-2.12-1.85v-6C655.73,96.43,656.43,95.81,657.85,95.81Zm9.94-73.41h5c1.4,0,2.11.62,2.11,1.85v6c0,1.23-.71,1.85-2.11,1.85h-5c-1.41,0-2.12-.62-2.12-1.85v-6C665.67,23,666.38,22.4,667.79,22.4Zm0,73.41h5c1.4,0,2.11.62,2.11,1.85v6c0,1.23-.71,1.85-2.11,1.85h-5c-1.41,0-2.12-.62-2.12-1.85v-6C665.67,96.43,666.38,95.81,667.79,95.81Z"/><ellipse class="02773ffe-ccf6-4149-bd2b-73826141f719" cx="318.53" cy="96.5" rx="9.53" ry="8.92"/><path d="M318.53,101.36a4.87,4.87,0,1,1,5.19-4.86A5,5,0,0,1,318.53,101.36Z"/><path class="2850bf7d-30a9-4881-8942-c56b64bb998a" d="M313.34,96.5a3.33,3.33,0,1,1,3.55-3.32A3.44,3.44,0,0,1,313.34,96.5Z"/><ellipse class="02773ffe-ccf6-4149-bd2b-73826141f719" cx="367.83" cy="95.15" rx="9.53" ry="8.92"/><path d="M367.83,100a4.87,4.87,0,1,1,5.2-4.86A5,5,0,0,1,367.83,100Z"/><path class="2850bf7d-30a9-4881-8942-c56b64bb998a" d="M362.64,95.15a3.33,3.33,0,1,1,3.55-3.32A3.44,3.44,0,0,1,362.64,95.15Z"/><path class="02773ffe-ccf6-4149-bd2b-73826141f719" d="M402.58,30.54C398.24,26.27,390.72,29,390.71,29a33.47,33.47,0,0,0-3.17-19.63c-.77,3.12-3.06,9-9.11,10.2,0,0-6.47-29.83-73.21,2.89,0,0-20,9.12-15.54,39.44A93.44,93.44,0,0,1,278.84,67c4.21.66,8.26,1.22,12.19,1.68.34,1.39.77,2.8,1.16,4.27,3.42,12.87,0,3,3.47-3.76a253.71,253.71,0,0,0,30.74,1.43c-1.9.91-5.77,2.29-4.57,2.13,72.15-9.39,71.75-21.21,71.75-21.21,6.36,4.76,4.77,22.9,4.77,22.9C409.79,64.35,412.12,37.87,402.58,30.54Z"/><g class="573eeb26-b5ea-4b40-bf95-f0fb96d6e702"><polygon class="2d5ef803-8e2b-4cc3-827b-dece4d5e7d2d" points="386.77 85.66 365.73 81.89 352.86 86.18 350.89 92.51 350.89 102.84 355.32 109.74 363.98 115.73 376.8 113.82 384.61 108.83 388.64 96.47 386.77 85.66"/><polygon class="2d5ef803-8e2b-4cc3-827b-dece4d5e7d2d" points="324.5 81.89 303.46 85.66 301.59 96.47 305.62 108.83 313.43 113.82 326.25 115.73 334.91 109.74 339.34 102.84 339.34 92.51 337.37 86.18 324.5 81.89"/></g><path class="02773ffe-ccf6-4149-bd2b-73826141f719" d="M392.63,84.5c-22.84-9.75-45.17-.79-45.17-.79a12.46,12.46,0,0,1-5.11.25c-3.13-1.15-23.71-8-44.75,1A2.63,2.63,0,0,0,296,87.32v4.12A2.58,2.58,0,0,0,298.08,94l.1,0a2.59,2.59,0,0,1,2.14,2.17c.72,5,3.57,17.1,11.88,19.13,4,1,15.17,3.49,24.85-5l.28-.3c.68-.82,3.57-4.58,3.57-9,0-5,1.37-6.23,3.91-6.62.35,0,1.18,0,1.89-.09,1.72.63,2.63,2.17,2.63,6.29,0,4.46,2.89,8.22,3.57,9l.28.29c9.68,8.44,20.81,5.94,24.85,5,8.31-2,11.16-14.09,11.88-19.12a2.6,2.6,0,0,1,2.14-2.18h.1A2.6,2.6,0,0,0,394.24,91V86.91A2.62,2.62,0,0,0,392.63,84.5Zm-55.3,16.66c0,3.22-2.1,6.14-2.72,6.93l-.31.33c-4.8,4.15-8,4.85-11.26,5-6.34.31-9.59-.5-11.08-1.25-6.62-3.34-8-13.5-8.35-16.12-.23-1.75-.27-8,1.85-9,5.67-2.76,7.37-2.95,13.74-2.95,5.71,0,12.69,1,15.77,4.64S337.33,98.88,337.33,101.16Zm49.29-5.51c-.35,2.62-1.73,12.77-8.35,16.12-1.49.75-4.74,1.56-11.08,1.25-3.27-.17-6.45-.86-11.25-5l-.32-.33c-.62-.8-2.72-3.71-2.72-6.94,0-2.27-.81-8.65,2.37-12.39s10.05-4.64,15.76-4.64c6.37,0,8.07.19,13.74,2.94C386.89,87.68,386.85,93.89,386.62,95.65Z"/></g></svg>